<svg xmlns="http://www.w3.org/2000/svg" viewBox="0 0 226.3 90">
  <title>progress2</title>
  <g>
    <path d="M225.1,42,184.6,1.2A4,4,0,0,0,180.9.1H5A5,5,0,0,0,0,5V85a5,5,0,0,0,5,5H181.1a4.2,4.2,0,0,0,3.5-1.1L225.1,48A4.3,4.3,0,0,0,225.1,42Z" fill="#67c9ad" fill-rule="evenodd"/>
    <path d="M34.8,44.8A11.6,11.6,0,1,1,23.3,33.3,11.6,11.6,0,0,1,34.8,44.8Zm-22.2,0A10.7,10.7,0,1,0,23.3,34.2,10.7,10.7,0,0,0,12.6,44.8Zm7.1,8h-3a10,10,0,0,1,1.4-4.1,11,11,0,0,1,3.2-3.6l2.6-1.9c1.1-.8,1.3-1.2,1.3-1.9s-.7-1.5-1.8-1.5a2,2,0,0,0-1.9.9,3,3,0,0,0-.5,1.6l-4.2-.4a6,6,0,0,1,1.4-3.5,6.3,6.3,0,0,1,5.1-2c3.8,0,6.2,1.8,6.2,4.8a4.5,4.5,0,0,1-1.8,3.7l-2.5,1.8a6.1,6.1,0,0,0-2.7,2.6h7.2v3.7h-10Z" fill="#fff"/>
    <g>
      <path d="M58.4,32h-.7a15.7,15.7,0,0,1-2.4.3v1.4a10.1,10.1,0,0,1,2.4-.2A6,6,0,0,1,62,35a4.2,4.2,0,0,1,1.1,2.9,3.9,3.9,0,0,1-4,3.9c-1.9,0-3.1-1.3-3.1-3.6v-.4a9.1,9.1,0,0,0,2.4-1v.9a3.1,3.1,0,0,0,.1,1,.8.8,0,0,0,.7.4,1.2,1.2,0,0,0,1.2-1.3,1.6,1.6,0,0,0-.8-1.4,3.3,3.3,0,0,0-1.9-.5,7.5,7.5,0,0,0-2.4.4v3.2a3.2,3.2,0,0,1-.3,1.7,2.2,2.2,0,0,1-1.7.7A5.3,5.3,0,0,1,50,40.6a2.6,2.6,0,0,1-1.1-2.1,4,4,0,0,1,1.5-2.6,6.9,6.9,0,0,1,2.4-1.4V32.6H49.7V30.1h3.1v-.5a12.2,12.2,0,0,0-.1-2.2h2.7c0,.6-.1,1-.1,2V30l3-.5Zm-5.6,5.1a1.9,1.9,0,0,0-1.3,1.4.5.5,0,0,0,.3.5,1.3,1.3,0,0,0,.7.3c.3,0,.3-.1.3-.7Zm8.9-3.5a13.7,13.7,0,0,0-3.1-3.8l2.1-1.4a13.1,13.1,0,0,1,3.2,3.5Z" fill="#fff"/>
      <path d="M68.1,38.2V39H65.5a8.7,8.7,0,0,0,.1-1.8V30.8a7.6,7.6,0,0,0-.1-1.6H71v-.2a10.3,10.3,0,0,0-.1-1.9h2.7a8.7,8.7,0,0,0-.1,1.8v.3H79v8a8.2,8.2,0,0,0,.1,1.8H76.5v-.8h-3v1.9a12.8,12.8,0,0,0,.1,2.2H70.9a13.5,13.5,0,0,0,.1-2.2V38.2Zm0-6.7v1.2H71V31.5Zm0,3.3V36H71V34.8Zm5.4-2.1h3V31.5h-3Zm0,3.3h3V34.8h-3Z" fill="#fff"/>
      <path d="M85,37.2a10.3,10.3,0,0,0,2.8-3.1,10,10,0,0,0,1-2.6A10.9,10.9,0,0,0,89,30H86.2V27.6h5.4v.9a10.4,10.4,0,0,0,.9,4.3A8.2,8.2,0,0,0,94,35.2a6.9,6.9,0,0,0,2,1.7,8.7,8.7,0,0,0-1.5,2.5,17.5,17.5,0,0,1-2.4-2.3,12,12,0,0,1-1.6-3.2,8.8,8.8,0,0,1-1.7,3.2,13.9,13.9,0,0,1-2.1,2.2,8.2,8.2,0,0,0-1.7-2v1.2a1,1,0,0,0,.5.6c.7.5,1.5.7,3.9.7a42.2,42.2,0,0,0,6.7-.4,19.8,19.8,0,0,0-.6,2.6H89.7c-3.7,0-4.8-.3-6-1.6a13.1,13.1,0,0,1-1.6,1.4l-.3.2-.2.2-1.1-2.6,2.1-1.2V35.4H80.9V33.1h4.2a8.7,8.7,0,0,0-.1,1.8Zm-2.4-9.9a21.1,21.1,0,0,1,3,3l-1.9,1.9a17,17,0,0,0-2.9-3.1Z" fill="#fff"/>
      <path d="M98.8,28h4.9l.7-.2,1.7,1.4a5.9,5.9,0,0,1-.4.8c-.1.4-.8,2.4-1,3.2l2.7.8a17.8,17.8,0,0,0,.1-2.6v-.9h2.8a9.7,9.7,0,0,0-.2,1.2,29.2,29.2,0,0,1-.2,3.3l1.6.8.6.3-1,3a13.3,13.3,0,0,0-1.9-1.4,8.9,8.9,0,0,1-4.2,4.4,9.5,9.5,0,0,0-2-2,10,10,0,0,0,2.4-1.5,6.4,6.4,0,0,0,1.4-2.1l-2.9-.9a16.9,16.9,0,0,1-1.6,4,2.9,2.9,0,0,1-2.5,1.5,2.7,2.7,0,0,1-2-.9,3.5,3.5,0,0,1-1-2.6,4.3,4.3,0,0,1,2-3.8A6.1,6.1,0,0,1,102,33l.8-2.6H98.9Zm.9,8.4a1.6,1.6,0,0,0-.4,1.2c0,.5.2.8.5.8s.8-.8,1.5-2.9A2,2,0,0,0,99.7,36.4Z" fill="#fff"/>
      <path d="M127.6,29.9a1.9,1.9,0,0,0-.5.9,10.7,10.7,0,0,1-4.5,5.3,6.2,6.2,0,0,0-1.8-1.8,8.3,8.3,0,0,1-.9,3.9,9.1,9.1,0,0,1-2.5,2.7,11.7,11.7,0,0,1-2.3,1.3,7.1,7.1,0,0,0-1.8-2.6,7.4,7.4,0,0,0,3.7-2.3,6.7,6.7,0,0,0,1-4.2,3.4,3.4,0,0,0-.1-1.1h3v1.3c0,.1-.1.4-.1.6l.4-.2a5.9,5.9,0,0,0,2.7-2.7H113.7V28.3h12.4Z" fill="#fff"/>
      <path d="M131.6,28.5a22.6,22.6,0,0,1,4.4,3.1l-1.9,2.5a17.4,17.4,0,0,0-4.4-3.4Zm-1.7,9.9a16,16,0,0,0,4.8-1.1,10.7,10.7,0,0,0,4.7-4,11.1,11.1,0,0,0,1.5-3.1,12.9,12.9,0,0,0,2.4,2.1,14.6,14.6,0,0,1-5.2,6.5,18.2,18.2,0,0,1-6.2,2.4,3,3,0,0,0-1.2.3Z" fill="#fff"/>
      <path d="M155.7,32.9a11,11,0,0,1-1,4.4,7.9,7.9,0,0,1-2.9,3.4,11.9,11.9,0,0,1-2.6,1.5,7,7,0,0,0-1.9-2.6c2.5-.8,3.9-1.9,4.7-3.4a7.3,7.3,0,0,0,.8-3.3h-3.3A11.3,11.3,0,0,1,147,36a7.9,7.9,0,0,0-2.4-1.8,11.6,11.6,0,0,0,3.4-4.3,16.8,16.8,0,0,0,.8-2.4l2.9.6a6.9,6.9,0,0,1-.4,1l-.5,1.2h8.6V33h-3.7Z" fill="#fff"/>
      <path d="M161.2,33.2h14.2v3.1H161.2Z" fill="#fff"/>
      <path d="M180.1,41.8a16.3,16.3,0,0,0,.1-2.5V30a14.8,14.8,0,0,0-.1-2.3h3.1a14.2,14.2,0,0,0-.1,2.3v2.2a34.5,34.5,0,0,1,7.3,3.4l-1.5,2.7a32.2,32.2,0,0,0-5.1-2.8l-.7-.3v4.1a17,17,0,0,0,.1,2.5Z" fill="#fff"/>
      <path d="M56.2,59.7c-1,2-2,2.9-3.5,2.9s-3.6-2.1-3.6-5a7.1,7.1,0,0,1,1.8-4.9,7.7,7.7,0,0,1,5.8-2.3,7,7,0,0,1,5.2,2,6.2,6.2,0,0,1,1.6,4.4A6.8,6.8,0,0,1,61.3,62a7.9,7.9,0,0,1-4.5,1.8,8.2,8.2,0,0,0-1.4-2.6,9.4,9.4,0,0,0,3.4-.8,4.1,4.1,0,0,0,1.9-3.7,3.9,3.9,0,0,0-1.4-3.2,3,3,0,0,0-1.4-.6A23.3,23.3,0,0,1,56.2,59.7Zm-2.8-5.9a5.4,5.4,0,0,0-1.7,3.8c0,1.1.4,2,1,2s.8-.5,1.3-1.7A27,27,0,0,0,55.2,53,3.3,3.3,0,0,0,53.4,53.8Z" fill="#fff"/>
      <path d="M70.6,57.5c-.9.8-1.4,1.4-1.4,2s1,1.2,3.5,1.2a18.7,18.7,0,0,0,5.2-.7l.2,3H76.5a26.9,26.9,0,0,1-4,.3,11.1,11.1,0,0,1-4.1-.6A3.1,3.1,0,0,1,66.3,60c0-1.4.7-2.6,2.3-3.9Zm-3.2-7.2a30.7,30.7,0,0,0,5.3.4,22.2,22.2,0,0,0,4.4-.3v2.5a32.6,32.6,0,0,0-4.5,2.8l-1.9-1.4.7-.5.6-.3h-.8a24.3,24.3,0,0,1-3.6-.2h-.5Zm8.9,4.1a17.7,17.7,0,0,1,1.6,2.2l-1.5.8a7.9,7.9,0,0,0-1.6-2.3Zm2-1.1a7.8,7.8,0,0,1,1.6,2.2l-1.4.8A8.4,8.4,0,0,0,76.9,54Z" fill="#fff"/>
      <path d="M87.7,54H80.8V51.8h6.8V49.6h7.6v7.4H90.3v4.3c0,.3.1.3.3.4h1.2c.8,0,1.2-.1,1.4-.4a7.7,7.7,0,0,0,.2-2.5,11.7,11.7,0,0,0,2.5.7c-.1,2.2-.4,3.2-.9,3.8s-1.4.7-3.6.7-3.5-.3-3.5-1.9V56.3a7.1,7.1,0,0,0-.1-1.6h4.9V52h-5ZM81.3,64.4V59h6v5H85v-.4H83.6v.7Zm0-14.9h5.9v1.9H81.3Zm.1,4.9h5.8v1.8H81.4Zm0,2.3h5.8v1.8H81.4Zm2.2,5.1H85v-1H83.6Z" fill="#fff"/>
      <path d="M101.2,52.1H99.4V49.6h6.2c0,.4-.1.7-.1,1a13.1,13.1,0,0,0,2.1,7,12.5,12.5,0,0,0,4.4,4.1,7.4,7.4,0,0,0-1.7,2.5,14,14,0,0,1-5.9-7.7,12,12,0,0,1-2.3,4.5,15.6,15.6,0,0,1-3.8,3.2A6.6,6.6,0,0,0,96.6,62a11.2,11.2,0,0,0,5.7-6.8,13.4,13.4,0,0,0,.5-3.1Z" fill="#fff"/>
    </g>
  </g>
</svg>
