<svg xmlns="http://www.w3.org/2000/svg" viewBox="0 0 226.3 90">
  <title>progress1</title>
  <g>
    <path d="M225.1,42,184.6,1.2A4,4,0,0,0,180.9.1H5A5,5,0,0,0,0,5V85a5,5,0,0,0,5,5H181.1a4.2,4.2,0,0,0,3.5-1.1L225.1,48A4.3,4.3,0,0,0,225.1,42Z" fill="#67c9ad" fill-rule="evenodd"/>
    <path d="M34.8,44.8A11.6,11.6,0,1,1,23.3,33.3,11.6,11.6,0,0,1,34.8,44.8Zm-22.2,0A10.7,10.7,0,1,0,23.3,34.2,10.7,10.7,0,0,0,12.6,44.8Zm6-7.9,2.4.2h4.9a28.2,28.2,0,0,0-.1,3.1v10a27.2,27.2,0,0,0,.1,3H21.6c0-1,.1-1.7.1-3V40.5H18.6Z" fill="#fff"/>
    <g>
      <path d="M54.6,35.5c-.9.8-1.4,1.4-1.4,2s1,1.2,3.5,1.2a18.7,18.7,0,0,0,5.2-.7l.2,3H60.5a26.9,26.9,0,0,1-4,.3,11.1,11.1,0,0,1-4.1-.6A3.1,3.1,0,0,1,50.3,38c0-1.4.7-2.6,2.3-3.9Zm-3.2-7.2a30.7,30.7,0,0,0,5.3.4,22.2,22.2,0,0,0,4.4-.3v2.5a32.6,32.6,0,0,0-4.5,2.8l-1.9-1.4.7-.5.6-.3h-.8a24.3,24.3,0,0,1-3.6-.2h-.5Zm8.9,4.1a17.7,17.7,0,0,1,1.6,2.2l-1.5.8a7.9,7.9,0,0,0-1.6-2.3Zm2-1.1a7.8,7.8,0,0,1,1.6,2.2l-1.4.8A8.4,8.4,0,0,0,60.9,32Z" fill="#fff"/>
      <path d="M73.1,28.1a3.4,3.4,0,0,1-.1-.9h2.5a2.5,2.5,0,0,0-.1.9h4.1v2.1H75.4v.5H79v6H75.4V37h4.2v2H75.4v.8a33.8,33.8,0,0,0,4.7-.3,11,11,0,0,0-.6,2.6h-6c-3.6,0-4.6-.3-5.8-1.5l-1.9,1.5-.3.2-1-2.6,1.9-1.2V35.4H64.8V33.1h4.1a8.2,8.2,0,0,0-.1,1.8v3.7a4.5,4.5,0,0,0,.7.7,7.1,7.1,0,0,0,3,.4h.6v-.8H69.2v-2h3.9v-.6H69.6v-6h3.5V30H69.5l-1.7,1.9A14.2,14.2,0,0,0,64.7,29l1.7-1.8a21.3,21.3,0,0,1,2.7,2.2V28h4Zm-1.3,4v.7h1.3v-.7Zm0,2.1v.6h1.3v-.6Zm3.6-1.4h1.3v-.7H75.4Zm0,2h1.3v-.6H75.4Z" fill="#fff"/>
      <path d="M86,36.2v-.5h-.8v4.8a8.2,8.2,0,0,0,.1,1.8H82.9a8.7,8.7,0,0,0,.1-1.8V35.9H80.9V33.8h1.3l.4-.4a22.8,22.8,0,0,0-1.8-2.6l1-2,.4.5A6.1,6.1,0,0,0,83,27l2.1.8c-.2.2-.2.2-.6,1.1A13.9,13.9,0,0,1,83.4,31c.1.2.2.2.3.5l1.5-2.7,1.9.9-.5.8-.2.3a7.3,7.3,0,0,0,2-1.9,6.3,6.3,0,0,0,.8-1.7l2.5.4a1.5,1.5,0,0,1-.4.8h3.2l1.1,1.3c-.2.1-.3.4-.7,1A10.4,10.4,0,0,1,93.2,33a8.9,8.9,0,0,0,2.9.9,9.2,9.2,0,0,0-.6,2.5H95v4.4a7.1,7.1,0,0,0,.1,1.6H92.6v-.7H90v.7H87.6a7.1,7.1,0,0,0,.1-1.6V36.4h-.4a5.6,5.6,0,0,0-.1-.7Zm-3.3.4a22.7,22.7,0,0,1-.5,5l-1.5-.8a24.5,24.5,0,0,0,.5-4.5Zm3.8-4.3.7,1.7a9.1,9.1,0,0,0,2.2-.9l-.9-1-1,.9a6.2,6.2,0,0,0-1.4-1.8,27.7,27.7,0,0,1-1.9,2.6h1.2a4.7,4.7,0,0,0-.3-.9Zm.3,4.1a27.2,27.2,0,0,1,.4,3.9l-1.5.3a24.1,24.1,0,0,0-.3-4Zm6.8-.5-2.3-1.2a14.3,14.3,0,0,1-2.1,1.2ZM90,30.5l1.2,1.3,1.1-1.4H90Zm0,8.9h2.6V38H90Z" fill="#fff"/>
      <path d="M97.1,33.2h1.4a9,9,0,0,0-1.8-1.5A8.5,8.5,0,0,0,99,29.1a6.7,6.7,0,0,0,.7-1.8l2.5.6c0,.1,0,.1-.2.6l-.5.9h1.7V29a9.1,9.1,0,0,0-.1-1.7h2.7a8.6,8.6,0,0,0-.1,1.7v.4h4.8v2.5h-4.8v1.6h5.9v2.5h-4.7v3.9c0,.3.2.4.9.4s1.1-.1,1.2-.2a5.8,5.8,0,0,0,.3-2.5l2.4.8a8,8,0,0,1-.6,3.2c-.5.8-1.3,1-3.6,1a4.5,4.5,0,0,1-2-.2,1.1,1.1,0,0,1-.9-1.3V35.6h-1.2a6.9,6.9,0,0,1-1.4,4.3,8.3,8.3,0,0,1-4,2.7,7.2,7.2,0,0,0-1.4-2.4,5.9,5.9,0,0,0,3.4-1.9,4.4,4.4,0,0,0,.9-2.7H97.1Zm1.9.1h4.2V31.7h-3a10.7,10.7,0,0,1-1.4,1.6Z" fill="#fff"/>
      <path d="M112.5,34.6a13.2,13.2,0,0,0,.4-3.4v-.8l1.4.3v.6a22.3,22.3,0,0,1-.4,3.9Zm4.3,5.8c0,.9.1,1.3.1,1.9h-2.5a14.8,14.8,0,0,0,.1-2.2V29a9.7,9.7,0,0,0-.1-1.8h2.5c0,.6-.1,1-.1,1.8v1.4l.8-.3a6.9,6.9,0,0,1,.8,2.1h3v-.4h-3V30.3h3v-.4H118V28.2h3.4a2.5,2.5,0,0,0-.1-.9h2.5a2.5,2.5,0,0,0-.1.9h3.7V30h-3.7v.4h3.2v1.5h-3.2v.4h4V34h-9.9V32.7l-.5.2c-.2-.6-.3-1-.5-1.5Zm3.7,0a11.5,11.5,0,0,0,.1,1.9h-2.5a9.8,9.8,0,0,0,.1-1.9V35.7a6.6,6.6,0,0,0-.1-1.4h8.8v6c0,1.5-.6,1.9-2.6,1.9H123a11.8,11.8,0,0,0-.4-2h1.3c.6,0,.6,0,.6-.3v-.4h-4Zm4-4v-.5h-4v.5Zm0,1.8v-.4h-4v.4Z" fill="#fff"/>
      <path d="M134.4,31.3h1.5v2.3h-.7a5,5,0,0,1-.4,1.3h1.1v2.2h-2.3v.9h2.2v2.3h-2.2v.7a9.2,9.2,0,0,0,.1,1.8h-2.5a9.2,9.2,0,0,0,.1-1.8v-.7h-2.1V37.6h2.1v-.9h-2.4V34.7h1.2l-.3-1.3h-.9V31.2h2.4v-.8h-2.1V28.4h2.1V27.2h2.4a3.7,3.7,0,0,0-.1,1.1h2v2.2h-2v.8Zm-1.6,3.4.3-1.3h-1.3a6.1,6.1,0,0,1,.3,1.3Zm10.8-.8a3.1,3.1,0,0,1-.2.8,16.2,16.2,0,0,1-1.1,3.7,6.6,6.6,0,0,0,1.8,1.4,10.7,10.7,0,0,0-1.2,2.4,10.1,10.1,0,0,1-1.9-1.7,12.9,12.9,0,0,1-1.6,1.8,4.8,4.8,0,0,0-.9-1.6c0,.7.1,1.1.1,1.6h-2.5a14.1,14.1,0,0,0,.1-2.2V27.7h7.3a6.2,6.2,0,0,0-.1,1.5c-.1,1.9-.2,2.4-.6,2.8s-.8.5-1.8.5h-1.4a16.2,16.2,0,0,0-.4-1.9h1.4c.4,0,.4-.1.5-.7h-2.6v2.9h4.2Zm-5.1,6a13.6,13.6,0,0,0,1.2-1.2,14.8,14.8,0,0,1-1.2-2.9Zm1.7-5a4.6,4.6,0,0,0,.7,1.6,5.3,5.3,0,0,0,.4-1.6Z" fill="#fff"/>
      <path d="M152.2,37.7c-1,2-2,2.9-3.5,2.9s-3.6-2.1-3.6-5a7.1,7.1,0,0,1,1.8-4.9,7.7,7.7,0,0,1,5.8-2.3,7,7,0,0,1,5.2,2,6.2,6.2,0,0,1,1.6,4.4,6.8,6.8,0,0,1-2.2,5.2,7.9,7.9,0,0,1-4.5,1.8,8.2,8.2,0,0,0-1.4-2.6,9.4,9.4,0,0,0,3.4-.8,4.1,4.1,0,0,0,1.9-3.7,3.9,3.9,0,0,0-1.4-3.2,3,3,0,0,0-1.4-.6A23.3,23.3,0,0,1,152.2,37.7Zm-2.8-5.9a5.4,5.4,0,0,0-1.7,3.8c0,1.1.4,2,1,2s.8-.5,1.3-1.7a27,27,0,0,0,1.2-4.9A3.3,3.3,0,0,0,149.4,31.8Z" fill="#fff"/>
      <path d="M54.6,57.5c-.9.8-1.4,1.4-1.4,2s1,1.2,3.5,1.2a18.7,18.7,0,0,0,5.2-.7l.2,3H60.5a26.9,26.9,0,0,1-4,.3,11.1,11.1,0,0,1-4.1-.6A3.1,3.1,0,0,1,50.3,60c0-1.4.7-2.6,2.3-3.9Zm-3.2-7.2a30.7,30.7,0,0,0,5.3.4,22.2,22.2,0,0,0,4.4-.3v2.5a32.6,32.6,0,0,0-4.5,2.8l-1.9-1.4.7-.5.6-.3h-.8a24.3,24.3,0,0,1-3.6-.2h-.5Zm8.9,4.1a17.7,17.7,0,0,1,1.6,2.2l-1.5.8a7.9,7.9,0,0,0-1.6-2.3Zm2-1.1a7.8,7.8,0,0,1,1.6,2.2l-1.4.8A8.4,8.4,0,0,0,60.9,54Z" fill="#fff"/>
      <path d="M71.7,54H64.8V51.8h6.8V49.6h7.6v7.4H74.3v4.3c0,.3.1.3.3.4h1.2c.8,0,1.2-.1,1.4-.4a7.7,7.7,0,0,0,.2-2.5,11.7,11.7,0,0,0,2.5.7c-.1,2.2-.4,3.2-.9,3.8s-1.4.7-3.6.7-3.5-.3-3.5-1.9V56.3a7.1,7.1,0,0,0-.1-1.6h4.9V52h-5ZM65.3,64.4V59h6v5H69v-.4H67.6v.7Zm0-14.9h5.9v1.9H65.3Zm.1,4.9h5.8v1.8H65.4Zm0,2.3h5.8v1.8H65.4Zm2.2,5.1H69v-1H67.6Z" fill="#fff"/>
      <path d="M85.2,52.1H83.4V49.6h6.2c0,.4-.1.7-.1,1a13.1,13.1,0,0,0,2.1,7A12.5,12.5,0,0,0,96,61.8a7.4,7.4,0,0,0-1.7,2.5,14,14,0,0,1-5.9-7.7,12,12,0,0,1-2.3,4.5,15.6,15.6,0,0,1-3.8,3.2A6.6,6.6,0,0,0,80.6,62a11.2,11.2,0,0,0,5.7-6.8,13.4,13.4,0,0,0,.5-3.1Z" fill="#fff"/>
    </g>
  </g>
</svg>
