<svg xmlns="http://www.w3.org/2000/svg" viewBox="0 0 191 90">
  <title>progress3</title>
  <g>
    <path d="M5,0H186a5,5,0,0,1,5,5V85a5,5,0,0,1-5,5H5a5,5,0,0,1-5-5V5A5,5,0,0,1,5,0Z" fill="#67c9ad" fill-rule="evenodd"/>
    <path d="M38.8,44.8A11.6,11.6,0,1,1,27.3,33.3,11.6,11.6,0,0,1,38.8,44.8Zm-22.2,0A10.7,10.7,0,1,0,27.3,34.2,10.7,10.7,0,0,0,16.6,44.8Zm8,3.2a1.9,1.9,0,0,0,.5,1.1,2.7,2.7,0,0,0,2.1.9c1.4,0,2.3-.8,2.3-1.9s-.8-1.8-2.5-1.8H24.4V43h2a3.7,3.7,0,0,0,2.1-.4,1.6,1.6,0,0,0,.7-1.3c0-1-.7-1.6-2-1.6s-2,.5-2.2,1.7l-4.3-.6a4.9,4.9,0,0,1,1.2-2.3c1.1-1.4,3-2.1,5.5-2.1s4.5.9,5.4,2.3a3.5,3.5,0,0,1,.6,2.1A3.4,3.4,0,0,1,32,43.8a4.1,4.1,0,0,1-2.3.9,5.7,5.7,0,0,1,2.8,1,3.5,3.5,0,0,1,1.3,3,4.4,4.4,0,0,1-1.1,2.9,7.9,7.9,0,0,1-5.4,1.7c-2.7,0-4.6-.7-5.8-2.1a6.5,6.5,0,0,1-1.1-2.5Z" fill="#fff"/>
    <g>
      <path d="M59,35.1H53.8V33.6H59v-.4H54.2V29.9H59v-.5H52.9v-2H59a1.7,1.7,0,0,0-.1-.8h2.6a1.7,1.7,0,0,0-.1.8h6.2v2H61.4V30h4.9v3.3H61.4v.4h5.3a4.9,4.9,0,0,0-.1,1.4v.5h1.2v2H66.6v.8c0,.9.1,1.3.1,1.8H64.3v-.6H61.4v.6c0,1.7-.4,2-2.8,2H57.1a7.6,7.6,0,0,0-.6-2h1.9c.5,0,.6,0,.6-.3v-.4H53.7V37.7H59v-.4H52.8V35.5H59Zm-2.5-3.8v.5H59v-.5Zm4.9.5H64v-.5H61.4Zm2.9,3.8v-.5H61.4v.5Zm-2.9,2.1h2.9v-.4H61.4Z" fill="#fff"/>
      <path d="M72.5,28.6a6.6,6.6,0,0,0-.8-1.3l2.5-.6a21.9,21.9,0,0,1,1.1,1.9h2a5.2,5.2,0,0,0,1-1.8l2.6.5a7.4,7.4,0,0,1-.8,1.3h3.5v2.4H69.1V28.5h3.4Zm-.4,11.5a9.7,9.7,0,0,0,.1,1.8H69.7c0-.6.1-1.2.1-2v-7c0-.8-.1-1.1-.1-1.5h6.6v8.5c0,1.5-.5,1.9-2.3,1.9h-.8a7.2,7.2,0,0,0-.5-2.1h.9c.3,0,.4-.1.4-.3v-.7H72.1ZM74,34.2v-.7H72.1v.7Zm0,2.6v-.7H72.1v.7Zm5.6-5c0,.4-.1.8-.1,1.5v3.6c0,.8.1,1.2.1,1.7H77.2V31.8Zm3.3-.4v8.2a2.1,2.1,0,0,1-.5,1.7c-.5.4-1,.5-2.5.5H78.6a9.5,9.5,0,0,0-.7-2.4l1.9.2c.6,0,.7-.1.7-.5V33a6.2,6.2,0,0,0-.1-1.6Z" fill="#fff"/>
      <path d="M99.6,29.7l-.3.4-1.2,1.3,1.9.8a8,8,0,0,0-1,2.3l-1.3-.6v4.3H94.5l1.8.5-.2.4c0,.1-.1.2-.2.3h3.7v2.3H84.9V39.4h3.7a2.8,2.8,0,0,0-.5-.9l1.8-.4H86.8a5.3,5.3,0,0,0,.1-1.3V34l-1.3.6a9.1,9.1,0,0,0-1.1-2.2l2.4-1a9.3,9.3,0,0,0-2.1-1.9l1.8-1.4,1,.8V27h5.8a3.1,3.1,0,0,0,.8,1.5l1.1-1.4,1.9,1.1-.3.3-1.2,1.4.6.4a6.4,6.4,0,0,0,1.3-1.7Zm-10,2.5a15,15,0,0,1-1.9,1.4H97l-1.9-1.3V33H89.6Zm-1.1-3.1h-.7l1,1a9.4,9.4,0,0,0,1-1Zm.7,7.1h6v-.7h-6Zm4.2,3.2.5-1.3H90.5a6.9,6.9,0,0,1,.5,1.3Zm.3-8.3a10.3,10.3,0,0,1-1.4-1.5,6.7,6.7,0,0,1-1.4,1.5Z" fill="#fff"/>
      <path d="M113.2,27.3h1.4a6.8,6.8,0,0,1-.1,1.2c0,1.1-.1,2.7-.1,3.5h1.4V34h-3.2a10.2,10.2,0,0,0,.4,1.5,4,4,0,0,0,1.4-1.5l1.5,1.4a10.7,10.7,0,0,1-1.9,1.8,6.5,6.5,0,0,0,2.1,1.9,9.9,9.9,0,0,0-1.3,2.3,8.6,8.6,0,0,1-2.5-3.4,4.5,4.5,0,0,1,.1,1.3v1c0,1.3-.5,1.7-2.1,1.7H109a6.9,6.9,0,0,0-.4-1.9l-1.1.7-.7-1.6v1.5a34.9,34.9,0,0,1-5.1,1.1h-.5l-.3-2.4,2.3-.2V35.1H101V33h2.2v-.7h-1v-.8l-.8.7a6.9,6.9,0,0,0-.9-2.3,6.2,6.2,0,0,0,2.7-3.1h2.3a6.5,6.5,0,0,0,2,2.2v-2h5.7ZM101.5,39a21.1,21.1,0,0,0-.7-3l1.5-.5a11.2,11.2,0,0,1,.7,2.9Zm4-8.5a9.7,9.7,0,0,1-1.1-1.5,5.8,5.8,0,0,1-1.1,1.5Zm6.6,1.4v-.5h-4.3V29.6h4.4v-.5h-4.5l-1.2,1.9v1.2h-1.2v.7h1.6V31.8h5.2Zm-3.6,2H107v1.2h-1.7v3.8l1.5-.3,2.7-1.7.7,1.6V33.9Zm-3.1,4a21,21,0,0,0,.6-2.4l1.4.5a16.9,16.9,0,0,1-.8,2.4Zm3.3-3.9a9.6,9.6,0,0,1,1.4,2.1l-1.7,1.1A8.4,8.4,0,0,0,107,35Zm1.5,4.6-1.3,1.1h.8c.4,0,.5-.1.5-.4Z" fill="#fff"/>
      <path d="M119,36.2h-1.8V33.9h14.2v2.4h-4.5V39c0,.4.2.5,1.2.5s1.1-.1,1.2-.4a3.9,3.9,0,0,0,.2-1.3v-.3a6.5,6.5,0,0,0,2.3.6c-.1,1.9-.4,2.7-1,3.2s-1.2.4-3.3.4-3-.2-3-1.5v-4h-1.2a6.7,6.7,0,0,1-1,3.2,6.5,6.5,0,0,1-2.7,2.1l-1.7.6a5.9,5.9,0,0,0-1.3-2.3,7,7,0,0,0,3-1.2,3,3,0,0,0,1.2-2.4Zm3.9-8.2c0-.5-.1-.8-.1-1.1h2.7a3.1,3.1,0,0,0-.1,1.1h6.1a4.5,4.5,0,0,0-.1,1.3V31a5.3,5.3,0,0,0,.1,1.3h-2.4v-2h-9.6v2H117a4.9,4.9,0,0,0,.1-1.3V28.1h5.8Zm-3,3h8.8v2.3h-8.8Z" fill="#fff"/>
      <path d="M136,29.9h-2.4V27.4h12.3l1.6,1.7-1.7,1.6a34.3,34.3,0,0,1-4.2,3.3v5.8a1.6,1.6,0,0,1-.6,1.4,4.3,4.3,0,0,1-2.4.5h-2.1a11.1,11.1,0,0,0-.7-2.6l2.4.2c.6,0,.8-.1.8-.4V33.3a7.6,7.6,0,0,0-.1-1.6h1.9a13,13,0,0,0,2.3-1.8Z" fill="#fff"/>
      <path d="M61.1,49.5c-.1.1-.1.2-.2.4a.3.3,0,0,1-.1.2.4.4,0,0,1-.1.3l-.3.7h4a3.7,3.7,0,0,0,1.2-.2l1.3,1.3a2.8,2.8,0,0,0-.5,1.2,17.1,17.1,0,0,1-3.3,6.3,15.8,15.8,0,0,1-5.9,4.1,7.2,7.2,0,0,0-1.9-2.4,13.3,13.3,0,0,0,5.3-3.3,11.3,11.3,0,0,0,2.7-4.5H59.1a15.7,15.7,0,0,1-3.7,4,10,10,0,0,0-2.2-1.9,12.4,12.4,0,0,0,4.2-4.9,6.4,6.4,0,0,0,.7-1.9Z" fill="#fff"/>
      <path d="M69.8,53.5a16.1,16.1,0,0,0,2.6.2h8.1a3.3,3.3,0,0,0,1.2-.2L83,54.8a8.9,8.9,0,0,0-.5,1A12.2,12.2,0,0,1,79,61.3a13.9,13.9,0,0,1-4.6,2.5,7.6,7.6,0,0,0-1.8-2.6,11.4,11.4,0,0,0,4.3-1.9,7.2,7.2,0,0,0,2.4-3.2H69.8Zm1.4-4,2.3.2h5.1a12.1,12.1,0,0,0,2.5-.2v2.7H71.2Z" fill="#fff"/>
      <path d="M98.2,52.5a.4.4,0,0,0-.1.3c-.1.1-.1.2-.2.4-1.3,5.1-4.1,8.3-9.1,10.6a8.6,8.6,0,0,0-2-2.7c4.2-1.4,7.2-4.2,8-7.9H85.5V50.4H96a6.1,6.1,0,0,0-.7-1l1.5-.5a9,9,0,0,1,1.3,2.6l-.6.2Zm.8-4.1a6.8,6.8,0,0,1,1.2,2.4l-1.3.5a14.5,14.5,0,0,0-1.2-2.5Z" fill="#fff"/>
      <path d="M106.6,57.1c-.9.8-1.4,1.4-1.4,2s1,1.2,3.5,1.2a18.7,18.7,0,0,0,5.2-.7l.2,3h-1.6a26.9,26.9,0,0,1-4,.3,11.1,11.1,0,0,1-4.1-.6,3.1,3.1,0,0,1-2.1-2.9c0-1.4.7-2.6,2.3-3.9Zm-3.2-7.2a30.7,30.7,0,0,0,5.3.4,22.2,22.2,0,0,0,4.4-.3v2.5a32.6,32.6,0,0,0-4.5,2.8l-1.9-1.4.7-.5.6-.3h-.8a24.3,24.3,0,0,1-3.6-.2h-.5Zm8.9,4.1a17.7,17.7,0,0,1,1.6,2.2l-1.5.8a7.9,7.9,0,0,0-1.6-2.3Zm2-1.1a7.8,7.8,0,0,1,1.6,2.2l-1.4.8a8.4,8.4,0,0,0-1.6-2.3Z" fill="#fff"/>
      <path d="M126.1,55.4a23.8,23.8,0,0,0,1.2-2.7l2.4.5a11.2,11.2,0,0,1-1,2.2h2.9v2.5h-4.9a11.5,11.5,0,0,0,5.3,3.5,12,12,0,0,0-1.5,2.4,16.1,16.1,0,0,1-3.2-2.1,14.2,14.2,0,0,1-2-2.2v.4a4.4,4.4,0,0,0,.1.9v1.6a9.7,9.7,0,0,0,.1,1.7h-2.7c0-.5.1-1,.1-1.7V59.3a12.3,12.3,0,0,1-4.9,4.3,7.5,7.5,0,0,0-1.5-2.4,9.9,9.9,0,0,0,2.7-1.4,15.5,15.5,0,0,0,2.3-2.1h-4.6V55.3h2.7a13.3,13.3,0,0,0-.9-2.1l2.3-.6a14.6,14.6,0,0,1,1,2.3l-1.8.4h2.7V52.6h-5.3V50.3h5.3V50c0-.5-.1-.8-.1-1.2h2.6v1.6h5.5v2.4h-5.5v2.8Z" fill="#fff"/>
      <path d="M133.7,54.1v-.3l-.5.4a9.1,9.1,0,0,0-.7-2.5,7.5,7.5,0,0,0,3-2.8h2.3a7.2,7.2,0,0,0,1.9,2.1,2.5,2.5,0,0,0-.1-.9h2.8c0-.5-.1-.8-.1-1.1h2.6a2.8,2.8,0,0,0-.1,1.1h3a3.4,3.4,0,0,0-.1,1.1v2.7h-.9v3.7h-4.3v.7h4.8v5.7h-2.4v-.7h-2.3V64h-2.5a4.1,4.1,0,0,0,.1-1.2l-1.9.9a3.6,3.6,0,0,1-.3-1.1l-3.8,1-1,.3-.5-2.5h1Zm2.1-1.6a.9.9,0,0,0-.1-.5,5.7,5.7,0,0,1-1.1,1.1h1.2Zm1.7-.6a7,7,0,0,0-.8-1,7,7,0,0,1-.8,1Zm2.2-.2a8,8,0,0,0-.9,1.4h.6v6.1H136v1.8l1.2-.3-.4-.8,1.9-.7a19.3,19.3,0,0,1,1.5,3.5V53.9h-.6a4.1,4.1,0,0,0,.1-1.1Zm-2.5,3.6v-.6H136v.6ZM136,57.4h1.2v-.6H136Zm2.2-4.3h.6L137.6,52v1.1Zm7.3-.8h-3.6V53h3.6Zm-3,3.5h2v-.9h-2Zm0,5.4h2.4v-1h-2.4Z" fill="#fff"/>
    </g>
  </g>
</svg>
